<svg id="art" xmlns="http://www.w3.org/2000/svg" width="75.078" height="65.803" viewBox="0 0 75.078 65.803">
  <g id="Group_44" data-name="Group 44" transform="translate(0)">
    <g id="Group_43" data-name="Group 43">
      <path id="Path_71" data-name="Path 71" d="M181.647,159.668a7.658,7.658,0,1,0,7.658,7.658A7.658,7.658,0,0,0,181.647,159.668Zm0,11.67a4.012,4.012,0,1,1,0-8.023h0a4.012,4.012,0,0,1,0,8.023Z" transform="translate(-143.627 -136.443)" fill="#e4ae23"/>
      <path id="Path_72" data-name="Path 72" d="M68.563,32.3,18.784,26.644a6.837,6.837,0,0,0-5.379,1.55,6.929,6.929,0,0,0-2.644,4.741l-.912,7.476H7.023C3.011,40.411,0,43.966,0,47.978V85.266a6.929,6.929,0,0,0,6.744,7.11q.138,0,.277,0H57.075c4.012,0,7.658-3.1,7.658-7.111V83.808A9.117,9.117,0,0,0,68.2,82.349a7.568,7.568,0,0,0,2.644-4.923l4.194-37.015A7.385,7.385,0,0,0,68.563,32.3Zm-7.476,52.97c0,2.006-2.006,3.464-4.012,3.464H7.023a3.282,3.282,0,0,1-3.377-3.184q0-.14,0-.28V78.52L17.781,68.126a4.376,4.376,0,0,1,5.653.273l9.938,8.752a8.571,8.571,0,0,0,5.379,2.006,8.3,8.3,0,0,0,4.376-1.185L61.087,67.579V85.266Zm0-21.972L41.211,74.873a4.65,4.65,0,0,1-5.379-.456L25.8,65.573a8.114,8.114,0,0,0-10.12-.365L3.649,73.961V47.978c0-2.006,1.368-3.92,3.373-3.92H57.075a4.194,4.194,0,0,1,4.012,3.92ZM71.392,39.918c0,.012,0,.024,0,.036L67.1,76.97a3.1,3.1,0,0,1-1.185,2.462c-.365.365-1.185.547-1.185.729V47.978a7.841,7.841,0,0,0-7.658-7.567H13.5l.821-7.111a4.194,4.194,0,0,1,1.368-2.37,4.194,4.194,0,0,1,2.735-.729l49.688,5.744A3.647,3.647,0,0,1,71.392,39.918Z" transform="translate(0 -26.576)" fill="#e4ae23"/>
    </g>
  </g>
</svg>
