<svg id="location" xmlns="http://www.w3.org/2000/svg" width="49.163" height="71.497" viewBox="0 0 49.163 71.497">
  <path id="Path_63" data-name="Path 63" d="M104.549,71.5a4.27,4.27,0,0,1-3.738-2.165l-.024-.043L83.058,36.837a24.891,24.891,0,0,1,.325-24.594A24.262,24.262,0,0,1,104,.005c.366-.008.734-.008,1.1,0a24.263,24.263,0,0,1,20.617,12.238,24.891,24.891,0,0,1,.325,24.594L108.311,69.288l-.024.043A4.269,4.269,0,0,1,104.549,71.5Zm0-67.028q-.23,0-.459,0A19.827,19.827,0,0,0,87.248,14.483a20.455,20.455,0,0,0-.27,20.211l17.57,32.16,17.57-32.159a20.455,20.455,0,0,0-.27-20.211A19.827,19.827,0,0,0,105.008,4.473q-.229,0-.459,0Z" transform="translate(-79.968 0.001)" fill="#e4ae23"/>
  <path id="Path_64" data-name="Path 64" d="M194.054,108.108a10.054,10.054,0,1,1,10.054-10.054A10.066,10.066,0,0,1,194.054,108.108Zm0-15.64a5.586,5.586,0,1,0,5.586,5.586A5.592,5.592,0,0,0,194.054,92.469Z" transform="translate(-169.473 -75.711)" fill="#e4ae23"/>
</svg>
