<svg xmlns="http://www.w3.org/2000/svg" width="63.753" height="72.836" viewBox="0 0 63.753 72.836">
  <g id="museum_1_" data-name="museum (1)" transform="translate(0.25 0.306)">
    <path id="Path_69" data-name="Path 69" d="M95.22,28.594V22.274L63.594,0,31.967,22.274v6.319H37.1L36.025,58.947H31.967V72.28H95.22V58.947H91.163L90.083,28.594ZM90.985,68.044H36.2V63.183H90.985ZM63.594,5.181,90.823,24.358H36.365ZM60.921,28.594h5.346l1.079,30.353h-7.5Zm-4.238,0L55.6,58.947h-3.6L50.926,28.594Zm18.5,30.353h-3.6L70.5,28.594h5.756ZM46.688,28.594l1.079,30.353h-7.5l1.079-30.353ZM79.42,58.947,80.5,28.594h5.346l1.079,30.353Z" transform="translate(-31.967 0)" fill="#e4ae23" stroke="#fdf7e8" stroke-width="0.5"/>
    <path id="Path_70" data-name="Path 70" d="M202.634,102.268h15.06V106.5h-15.06Z" transform="translate(-178.538 -87.829)" fill="#e4ae23" stroke="#fdf7e8" stroke-width="0.5"/>
  </g>
</svg>
